<svg width="2096" height="1368" viewBox="0 0 2096 1368" fill="none" xmlns="http://www.w3.org/2000/svg">
<path fill-rule="evenodd" clip-rule="evenodd" d="M1606 624C1623.67 624 1638 609.673 1638 592C1638 574.327 1623.67 560 1606 560C1588.33 560 1574 574.327 1574 592C1574 609.673 1588.33 624 1606 624ZM1606 620C1621.46 620 1634 607.464 1634 592C1634 576.536 1621.46 564 1606 564C1590.54 564 1578 576.536 1578 592C1578 607.464 1590.54 620 1606 620Z" fill="#239DAD"/>
<path fill-rule="evenodd" clip-rule="evenodd" d="M820.628 169.521L624.521 334.074L789.075 530.182L985.182 365.628L820.628 169.521ZM819.489 177.694L632.574 334.534L789.415 521.449L976.329 364.609L819.489 177.694Z" fill="#EE4266"/>
<path fill-rule="evenodd" clip-rule="evenodd" d="M1903.41 869.409L2031.41 647.706L1809.71 519.706L1681.71 741.409L1903.41 869.409ZM1901.68 861.339L2023.68 650.029L1812.37 528.029L1690.37 739.339L1901.68 861.339Z" fill="#6182EC"/>
<path fill-rule="evenodd" clip-rule="evenodd" d="M156.767 834.51L90.5097 1081.79L337.787 1148.04L404.044 900.767L156.767 834.51ZM160.522 841.858L97.3704 1077.54L333.056 1140.7L396.208 905.01L160.522 841.858Z" fill="#7E1FB9"/>
<path fill-rule="evenodd" clip-rule="evenodd" d="M1049.85 800.877L1304.88 823.189L1327.19 568.163L1072.16 545.851L1049.85 800.877ZM1056.44 795.903L1299.51 817.169L1320.77 574.098L1077.7 552.832L1056.44 795.903Z" fill="#B91F69"/>
<path fill-rule="evenodd" clip-rule="evenodd" d="M749.19 1138.74L913.743 1334.85L1109.85 1170.3L945.297 974.19L749.19 1138.74ZM757.363 1139.88L914.203 1326.8L1101.12 1169.96L944.278 983.042L757.363 1139.88Z" fill="#EF7F1B"/>
<path fill-rule="evenodd" clip-rule="evenodd" d="M272.702 0L51 128L179 349.703L400.702 221.702L272.702 0ZM270.161 7.85132L58.8513 129.851L180.851 341.161L392.161 219.162L270.161 7.85132Z" fill="#3BCEAC"/>
<path fill-rule="evenodd" clip-rule="evenodd" d="M305 513C322.673 513 337 498.673 337 481C337 463.327 322.673 449 305 449C287.327 449 273 463.327 273 481C273 498.673 287.327 513 305 513ZM305 509C320.464 509 333 496.464 333 481C333 465.536 320.464 453 305 453C289.536 453 277 465.536 277 481C277 496.464 289.536 509 305 509Z" fill="#EF7F1B"/>
<path fill-rule="evenodd" clip-rule="evenodd" d="M1491 190C1508.67 190 1523 175.673 1523 158C1523 140.327 1508.67 126 1491 126C1473.33 126 1459 140.327 1459 158C1459 175.673 1473.33 190 1491 190ZM1491 186C1506.46 186 1519 173.464 1519 158C1519 142.536 1506.46 130 1491 130C1475.54 130 1463 142.536 1463 158C1463 173.464 1475.54 186 1491 186Z" fill="#6182EC"/>
<path fill-rule="evenodd" clip-rule="evenodd" d="M369 1097C386.673 1097 401 1082.67 401 1065C401 1047.33 386.673 1033 369 1033C351.327 1033 337 1047.33 337 1065C337 1082.67 351.327 1097 369 1097ZM369 1093C384.464 1093 397 1080.46 397 1065C397 1049.54 384.464 1037 369 1037C353.536 1037 341 1049.54 341 1065C341 1080.46 353.536 1093 369 1093Z" fill="#6182EC"/>
<path fill-rule="evenodd" clip-rule="evenodd" d="M1491 1197C1508.67 1197 1523 1182.67 1523 1165C1523 1147.33 1508.67 1133 1491 1133C1473.33 1133 1459 1147.33 1459 1165C1459 1182.67 1473.33 1197 1491 1197ZM1491 1193C1506.46 1193 1519 1180.46 1519 1165C1519 1149.54 1506.46 1137 1491 1137C1475.54 1137 1463 1149.54 1463 1165C1463 1180.46 1475.54 1193 1491 1193Z" fill="#3F2196"/>
<path fill-rule="evenodd" clip-rule="evenodd" d="M1912 126C1929.67 126 1944 111.673 1944 94C1944 76.3269 1929.67 62 1912 62C1894.33 62 1880 76.3269 1880 94C1880 111.673 1894.33 126 1912 126ZM1912 122C1927.46 122 1940 109.464 1940 94C1940 78.536 1927.46 66 1912 66C1896.54 66 1884 78.536 1884 94C1884 109.464 1896.54 122 1912 122Z" fill="#B91F69"/>
</svg>
